0
SECTION
2
HEADER
9
$INSUNITS
70
4
0
ENDSEC
0
SECTION
2
ENTITIES
0
LINE
8
KESIM
10
-125.0000
20
250.0000
11
125.0000
21
250.0000
0
ARC
8
KESIM
10
-125.0000
20
240.0000
40
10.0000
50
90.0000
51
180.0000
0
ARC
8
KESIM
10
125.0000
20
240.0000
40
10.0000
50
0.0000
51
90.0000
0
LINE
8
KESIM
10
-135.0000
20
240.0000
11
-135.0000
21
-240.0000
0
LINE
8
KESIM
10
135.0000
20
240.0000
11
135.0000
21
-240.0000
0
ARC
8
KESIM
10
-125.0000
20
-240.0000
40
10.0000
50
180.0000
51
270.0000
0
ARC
8
KESIM
10
125.0000
20
-240.0000
40
10.0000
50
270.0000
51
0.0000
0
LINE
8
KESIM
10
-125.0000
20
-250.0000
11
125.0000
21
-250.0000
0
CIRCLE
8
KESIM
10
-115.0000
20
235.0000
40
3.3000
0
CIRCLE
8
KESIM
10
-115.0000
20
201.0000
40
2.2500
0
CIRCLE
8
KESIM
10
-115.0000
20
169.0000
40
2.2500
0
ARC
8
KESIM
10
-92.5000
20
126.7500
40
1.7500
50
180.0000
51
270.0000
0
ARC
8
KESIM
10
-92.5000
20
126.7500
40
1.7500
50
270.0000
51
0.0000
0
LINE
8
KESIM
10
-90.7500
20
126.7500
11
-90.7500
21
153.2500
0
ARC
8
KESIM
10
-92.5000
20
153.2500
40
1.7500
50
0.0000
51
180.0000
0
LINE
8
KESIM
10
-94.2500
20
126.7500
11
-94.2500
21
153.2500
0
CIRCLE
8
KESIM
10
-115.0000
20
90.0000
40
3.3000
0
ARC
8
KESIM
10
-92.5000
20
66.7500
40
1.7500
50
180.0000
51
270.0000
0
ARC
8
KESIM
10
-92.5000
20
66.7500
40
1.7500
50
270.0000
51
0.0000
0
LINE
8
KESIM
10
-90.7500
20
66.7500
11
-90.7500
21
93.2500
0
ARC
8
KESIM
10
-92.5000
20
93.2500
40
1.7500
50
0.0000
51
180.0000
0
LINE
8
KESIM
10
-94.2500
20
66.7500
11
-94.2500
21
93.2500
0
CIRCLE
8
KESIM
10
-60.0000
20
29.0000
40
1.7000
0
CIRCLE
8
KESIM
10
-50.0000
20
230.0000
40
3.3000
0
CIRCLE
8
KESIM
10
-115.0000
20
-90.0000
40
3.3000
0
CIRCLE
8
KESIM
10
-80.0000
20
-36.0000
40
8.0000
0
CIRCLE
8
KESIM
10
-78.2353
20
-62.0000
40
1.7000
0
CIRCLE
8
KESIM
10
-78.2353
20
-88.0000
40
1.7000
0
CIRCLE
8
KESIM
10
-115.0000
20
-169.0000
40
2.2500
0
CIRCLE
8
KESIM
10
-115.0000
20
-201.0000
40
2.2500
0
CIRCLE
8
KESIM
10
-115.0000
20
-235.0000
40
3.3000
0
CIRCLE
8
KESIM
10
-88.5000
20
-144.0000
40
1.7000
0
CIRCLE
8
KESIM
10
-88.5000
20
-186.0000
40
1.7000
0
CIRCLE
8
KESIM
10
-80.0000
20
-200.0000
40
8.0000
0
CIRCLE
8
KESIM
10
-50.0000
20
-0.0000
40
3.3000
0
CIRCLE
8
KESIM
10
-20.2353
20
-62.0000
40
1.7000
0
CIRCLE
8
KESIM
10
-20.2353
20
-88.0000
40
1.7000
0
CIRCLE
8
KESIM
10
-46.5000
20
-144.0000
40
1.7000
0
CIRCLE
8
KESIM
10
-46.5000
20
-186.0000
40
1.7000
0
CIRCLE
8
KESIM
10
-50.0000
20
-230.0000
40
3.3000
0
CIRCLE
8
KESIM
10
-29.0000
20
-157.0000
40
1.7000
0
CIRCLE
8
KESIM
10
-29.0000
20
-183.0000
40
1.7000
0
CIRCLE
8
KESIM
10
50.0000
20
230.0000
40
3.3000
0
CIRCLE
8
KESIM
10
115.0000
20
235.0000
40
3.3000
0
CIRCLE
8
KESIM
10
115.0000
20
201.0000
40
2.2500
0
ARC
8
KESIM
10
92.5000
20
126.7500
40
1.7500
50
180.0000
51
270.0000
0
ARC
8
KESIM
10
92.5000
20
126.7500
40
1.7500
50
270.0000
51
0.0000
0
LINE
8
KESIM
10
94.2500
20
126.7500
11
94.2500
21
153.2500
0
ARC
8
KESIM
10
92.5000
20
153.2500
40
1.7500
50
0.0000
51
180.0000
0
LINE
8
KESIM
10
90.7500
20
126.7500
11
90.7500
21
153.2500
0
CIRCLE
8
KESIM
10
115.0000
20
169.0000
40
2.2500
0
CIRCLE
8
KESIM
10
60.0000
20
29.0000
40
1.7000
0
ARC
8
KESIM
10
92.5000
20
66.7500
40
1.7500
50
180.0000
51
270.0000
0
ARC
8
KESIM
10
92.5000
20
66.7500
40
1.7500
50
270.0000
51
0.0000
0
LINE
8
KESIM
10
94.2500
20
66.7500
11
94.2500
21
93.2500
0
ARC
8
KESIM
10
92.5000
20
93.2500
40
1.7500
50
0.0000
51
180.0000
0
LINE
8
KESIM
10
90.7500
20
66.7500
11
90.7500
21
93.2500
0
CIRCLE
8
KESIM
10
115.0000
20
90.0000
40
3.3000
0
CIRCLE
8
KESIM
10
20.2353
20
-62.0000
40
1.7000
0
CIRCLE
8
KESIM
10
20.2353
20
-88.0000
40
1.7000
0
CIRCLE
8
KESIM
10
50.0000
20
-0.0000
40
3.3000
0
CIRCLE
8
KESIM
10
29.0000
20
-157.0000
40
1.7000
0
CIRCLE
8
KESIM
10
29.0000
20
-183.0000
40
1.7000
0
CIRCLE
8
KESIM
10
46.5000
20
-144.0000
40
1.7000
0
CIRCLE
8
KESIM
10
46.5000
20
-186.0000
40
1.7000
0
CIRCLE
8
KESIM
10
50.0000
20
-230.0000
40
3.3000
0
CIRCLE
8
KESIM
10
80.0000
20
-36.0000
40
8.0000
0
CIRCLE
8
KESIM
10
78.2353
20
-62.0000
40
1.7000
0
CIRCLE
8
KESIM
10
78.2353
20
-88.0000
40
1.7000
0
CIRCLE
8
KESIM
10
115.0000
20
-90.0000
40
3.3000
0
CIRCLE
8
KESIM
10
88.5000
20
-144.0000
40
1.7000
0
CIRCLE
8
KESIM
10
80.0000
20
-200.0000
40
8.0000
0
CIRCLE
8
KESIM
10
88.5000
20
-186.0000
40
1.7000
0
CIRCLE
8
KESIM
10
115.0000
20
-169.0000
40
2.2500
0
CIRCLE
8
KESIM
10
115.0000
20
-201.0000
40
2.2500
0
CIRCLE
8
KESIM
10
115.0000
20
-235.0000
40
3.3000
0
ENDSEC
0
EOF
