0
SECTION
2
HEADER
9
$INSUNITS
70
4
0
ENDSEC
0
SECTION
2
ENTITIES
0
LINE
8
KESIM
10
135.0000
20
-26.2500
11
135.0000
21
-240.0000
0
ARC
8
KESIM
10
133.0000
20
-26.2500
40
2.0000
50
0.0000
51
90.0000
0
ARC
8
KESIM
10
125.0000
20
-240.0000
40
10.0000
50
270.0000
51
0.0000
0
LINE
8
KESIM
10
-133.0000
20
-24.2500
11
133.0000
21
-24.2500
0
LINE
8
KESIM
10
-125.0000
20
-250.0000
11
125.0000
21
-250.0000
0
ARC
8
KESIM
10
-133.0000
20
-26.2500
40
2.0000
50
90.0000
51
180.0000
0
ARC
8
KESIM
10
-125.0000
20
-240.0000
40
10.0000
50
180.0000
51
270.0000
0
LINE
8
KESIM
10
-135.0000
20
-26.2500
11
-135.0000
21
-240.0000
0
CIRCLE
8
KESIM
10
-129.5000
20
-55.5000
40
1.4500
0
CIRCLE
8
KESIM
10
-115.0000
20
-40.0000
40
2.7500
0
CIRCLE
8
KESIM
10
-71.5000
20
-55.5000
40
1.4500
0
CIRCLE
8
KESIM
10
-129.5000
20
-104.5000
40
1.4500
0
CIRCLE
8
KESIM
10
-71.5000
20
-104.5000
40
1.4500
0
CIRCLE
8
KESIM
10
-10.0000
20
-54.0000
40
1.4500
0
CIRCLE
8
KESIM
10
-10.0000
20
-66.0000
40
1.4500
0
CIRCLE
8
KESIM
10
-115.0000
20
-230.0000
40
2.7500
0
CIRCLE
8
KESIM
10
10.0000
20
-54.0000
40
1.4500
0
CIRCLE
8
KESIM
10
10.0000
20
-66.0000
40
1.4500
0
CIRCLE
8
KESIM
10
47.5000
20
-52.5000
40
1.7000
0
CIRCLE
8
KESIM
10
47.5000
20
-97.5000
40
1.7000
0
CIRCLE
8
KESIM
10
55.0500
20
-115.4750
40
1.4500
0
CIRCLE
8
KESIM
10
55.0500
20
-134.5250
40
1.4500
0
CIRCLE
8
KESIM
10
115.0000
20
-40.0000
40
2.7500
0
CIRCLE
8
KESIM
10
112.5000
20
-52.5000
40
1.7000
0
CIRCLE
8
KESIM
10
112.5000
20
-97.5000
40
1.7000
0
CIRCLE
8
KESIM
10
110.9500
20
-115.4750
40
1.4500
0
CIRCLE
8
KESIM
10
110.9500
20
-134.5250
40
1.4500
0
ARC
8
KESIM
10
-55.0000
20
-170.0000
40
5.0000
50
180.0000
51
270.0000
0
LINE
8
KESIM
10
-55.0000
20
-175.0000
11
55.0000
21
-175.0000
0
ARC
8
KESIM
10
55.0000
20
-170.0000
40
5.0000
50
270.0000
51
0.0000
0
LINE
8
KESIM
10
60.0000
20
-170.0000
11
60.0000
21
-155.0000
0
ARC
8
KESIM
10
55.0000
20
-155.0000
40
5.0000
50
0.0000
51
90.0000
0
LINE
8
KESIM
10
-55.0000
20
-150.0000
11
55.0000
21
-150.0000
0
ARC
8
KESIM
10
-55.0000
20
-155.0000
40
5.0000
50
90.0000
51
180.0000
0
LINE
8
KESIM
10
-60.0000
20
-170.0000
11
-60.0000
21
-155.0000
0
CIRCLE
8
KESIM
10
115.0000
20
-230.0000
40
2.7500
0
ENDSEC
0
EOF
