0
SECTION
2
HEADER
9
$INSUNITS
70
4
0
ENDSEC
0
SECTION
2
ENTITIES
0
LINE
8
KESIM
10
-125.0000
20
250.0000
11
125.0000
21
250.0000
0
ARC
8
KESIM
10
125.0000
20
240.0000
40
10.0000
50
0.0000
51
90.0000
0
LINE
8
KESIM
10
135.0000
20
240.0000
11
135.0000
21
-21.7500
0
ARC
8
KESIM
10
133.0000
20
-21.7500
40
2.0000
50
270.0000
51
0.0000
0
LINE
8
KESIM
10
22.0000
20
-23.7500
11
133.0000
21
-23.7500
0
LINE
8
KESIM
10
22.0000
20
-23.7500
11
22.0000
21
22.0000
0
LINE
8
KESIM
10
-22.0000
20
22.0000
11
22.0000
21
22.0000
0
LINE
8
KESIM
10
-22.0000
20
-23.7500
11
-22.0000
21
22.0000
0
LINE
8
KESIM
10
-133.0000
20
-23.7500
11
-22.0000
21
-23.7500
0
ARC
8
KESIM
10
-133.0000
20
-21.7500
40
2.0000
50
180.0000
51
270.0000
0
LINE
8
KESIM
10
-135.0000
20
240.0000
11
-135.0000
21
-21.7500
0
ARC
8
KESIM
10
-125.0000
20
240.0000
40
10.0000
50
90.0000
51
180.0000
0
CIRCLE
8
KESIM
10
-115.0000
20
230.0000
40
2.7500
0
CIRCLE
8
KESIM
10
-112.0000
20
150.0000
40
2.2500
0
CIRCLE
8
KESIM
10
-47.0000
20
213.0000
40
2.2500
0
CIRCLE
8
KESIM
10
-115.0000
20
40.0000
40
2.7500
0
ARC
8
KESIM
10
-73.0000
20
30.0000
40
7.0000
50
90.0000
51
270.0000
0
LINE
8
KESIM
10
-73.0000
20
23.0000
11
-47.0000
21
23.0000
0
ARC
8
KESIM
10
-47.0000
20
30.0000
40
7.0000
50
270.0000
51
90.0000
0
LINE
8
KESIM
10
-73.0000
20
37.0000
11
-47.0000
21
37.0000
0
CIRCLE
8
KESIM
10
47.0000
20
213.0000
40
2.2500
0
CIRCLE
8
KESIM
10
115.0000
20
230.0000
40
2.7500
0
ARC
8
KESIM
10
47.0000
20
30.0000
40
7.0000
50
90.0000
51
270.0000
0
LINE
8
KESIM
10
47.0000
20
23.0000
11
73.0000
21
23.0000
0
ARC
8
KESIM
10
73.0000
20
30.0000
40
7.0000
50
270.0000
51
90.0000
0
LINE
8
KESIM
10
47.0000
20
37.0000
11
73.0000
21
37.0000
0
CIRCLE
8
KESIM
10
115.0000
20
40.0000
40
2.7500
0
ENDSEC
0
EOF
